ffmpeg started on 2016-12-02 at 09:31:19
Report written to "Output/x264/results/ffmpeg/old_town_cross_2160p50slower13000k.log"
Command line:
Tools/ffmpeg/ffmpeg -benchmark -y -i Input/y4m/old_town_cross_2160p50.y4m -c:v libx264 -preset slower -b:v 13000k -an Output/x264/encoded/old_town_cross_2160p50slower13000k.mkv
ffmpeg version N-82227-gdb23fde Copyright (c) 2000-2016 the FFmpeg developers
  built with gcc 5.4.0 (Ubuntu 5.4.0-6ubuntu1~16.04.2) 20160609
  configuration: --prefix=/home/jaroslav/ffmpeg_build --pkg-config-flags=--static --extra-cflags=-I/home/jaroslav/ffmpeg_build/include --extra-ldflags=-L/home/jaroslav/ffmpeg_build/lib --bindir=/home/jaroslav/bin --enable-gpl --enable-libass --enable-libfdk-aac --enable-libfreetype --enable-libmp3lame --enable-libopus --enable-libtheora --enable-libvorbis --enable-libvpx --enable-libx264 --enable-libx265 --enable-nvenc --enable-libmfx --enable-libxvid --enable-libgsm --enable-libopencore-amrnb --enable-version3 --enable-nonfree
  libavutil      55. 35.100 / 55. 35.100
  libavcodec     57. 66.101 / 57. 66.101
  libavformat    57. 57.100 / 57. 57.100
  libavdevice    57.  2.100 / 57.  2.100
  libavfilter     6. 66.100 /  6. 66.100
  libswscale      4.  3.100 /  4.  3.100
  libswresample   2.  4.100 /  2.  4.100
  libpostproc    54.  2.100 / 54.  2.100
Input #0, yuv4mpegpipe, from 'Input/y4m/old_town_cross_2160p50.y4m':
  Duration: 00:00:10.00, start: 0.000000, bitrate: 4976642 kb/s
    Stream #0:0: Video: rawvideo (I420 / 0x30323449), yuv420p(progressive), 3840x2160, SAR 1:1 DAR 16:9, 50 fps, 50 tbr, 50 tbn, 50 tbc
[libx264 @ 0x34ae120] using SAR=1/1
[libx264 @ 0x34ae120] DPB size (8 frames, 259200 mbs) > level limit (5 frames, 184320 mbs)
[libx264 @ 0x34ae120] using cpu capabilities: MMX2 SSE2Fast SSSE3 SSE4.2 AVX FMA3 AVX2 LZCNT BMI2
[libx264 @ 0x34ae120] profile High, level 5.2
[libx264 @ 0x34ae120] 264 - core 148 - H.264/MPEG-4 AVC codec - Copyleft 2003-2016 - http://www.videolan.org/x264.html - options: cabac=1 ref=8 deblock=1:0:0 analyse=0x3:0x133 me=umh subme=9 psy=1 psy_rd=1.00:0.00 mixed_ref=1 me_range=16 chroma_me=1 trellis=2 8x8dct=1 cqm=0 deadzone=21,11 fast_pskip=1 chroma_qp_offset=-2 threads=6 lookahead_threads=1 sliced_threads=0 nr=0 decimate=1 interlaced=0 bluray_compat=0 constrained_intra=0 bframes=3 b_pyramid=2 b_adapt=2 b_bias=0 direct=3 weightb=1 open_gop=0 weightp=2 keyint=250 keyint_min=25 scenecut=40 intra_refresh=0 rc_lookahead=60 rc=abr mbtree=1 bitrate=13000 ratetol=1.0 qcomp=0.60 qpmin=0 qpmax=69 qpstep=4 ip_ratio=1.40 aq=1:1.00
Output #0, matroska, to 'Output/x264/encoded/old_town_cross_2160p50slower13000k.mkv':
  Metadata:
    encoder         : Lavf57.57.100
    Stream #0:0: Video: h264 (libx264) (H264 / 0x34363248), yuv420p, 3840x2160 [SAR 1:1 DAR 16:9], q=-1--1, 13000 kb/s, 50 fps, 1k tbn, 50 tbc
    Metadata:
      encoder         : Lavc57.66.101 libx264
    Side data:
      cpb: bitrate max/min/avg: 0/0/13000000 buffer size: 0 vbv_delay: -1
Stream mapping:
  Stream #0:0 -> #0:0 (rawvideo (native) -> h264 (libx264))
Press [q] to stop, [?] for help
frame=   62 fps=0.0 q=0.0 size=       0kB time=00:00:00.00 bitrate=N/A speed=   0x    frame=   67 fps= 17 q=0.0 size=       0kB time=00:00:00.00 bitrate=N/A speed=   0x    frame=   72 fps= 12 q=31.0 size=       1kB time=-00:00:00.01 bitrate=N/A speed=N/A    frame=   73 fps= 10 q=32.0 size=       1kB time=00:00:00.00 bitrate=5888.0kbits/s speed=0.000142x    frame=   75 fps=9.6 q=35.0 size=       1kB time=00:00:00.04 bitrate= 143.6kbits/s speed=0.00524x    frame=   78 fps=9.2 q=44.0 size=       1kB time=00:00:00.10 bitrate=  58.3kbits/s speed=0.0119x    frame=   79 fps=8.7 q=42.0 size=       1kB time=00:00:00.12 bitrate=  48.7kbits/s speed=0.0133x    frame=   82 fps=8.4 q=48.0 size=       1kB time=00:00:00.18 bitrate=  32.5kbits/s speed=0.0186x    frame=   88 fps=8.2 q=47.0 size=       1kB time=00:00:00.30 bitrate=  19.6kbits/s speed=0.0281x    frame=   93 fps=8.2 q=43.0 size=       1kB time=00:00:00.40 bitrate=  14.7kbits/s speed=0.0354x    frame=   96 fps=8.0 q=42.0 size=       1kB time=00:00:00.46 bitrate=  12.8kbits/s speed=0.0382x    frame=  100 fps=7.9 q=41.0 size=       1kB time=00:00:00.54 bitrate=  10.9kbits/s speed=0.043x    frame=  103 fps=7.6 q=42.0 size=       1kB time=00:00:00.60 bitrate=   9.8kbits/s speed=0.0444x    frame=  107 fps=7.5 q=41.0 size=       1kB time=00:00:00.68 bitrate=   8.6kbits/s speed=0.048x    frame=  109 fps=7.4 q=40.0 size=       1kB time=00:00:00.72 bitrate=   8.2kbits/s speed=0.0491x    frame=  112 fps=7.2 q=40.0 size=       1kB time=00:00:00.78 bitrate=   7.5kbits/s speed=0.0501x    frame=  118 fps=7.0 q=39.0 size=       1kB time=00:00:00.90 bitrate=   6.5kbits/s speed=0.0534x    frame=  122 fps=6.8 q=38.0 size=       1kB time=00:00:00.98 bitrate=   6.0kbits/s speed=0.0545x    frame=  126 fps=6.8 q=38.0 size=       1kB time=00:00:01.06 bitrate=   5.5kbits/s speed=0.0569x    frame=  128 fps=6.7 q=38.0 size=       1kB time=00:00:01.10 bitrate=   5.3kbits/s speed=0.0575x    frame=  130 fps=6.5 q=37.0 size=       1kB time=00:00:01.14 bitrate=   5.2kbits/s speed=0.0573x    frame=  134 fps=6.5 q=37.0 size=       1kB time=00:00:01.22 bitrate=   4.8kbits/s speed=0.0594x    frame=  136 fps=6.3 q=37.0 size=       1kB time=00:00:01.26 bitrate=   4.7kbits/s speed=0.0583x    frame=  139 fps=6.2 q=36.0 size=       1kB time=00:00:01.32 bitrate=   4.5kbits/s speed=0.0594x    frame=  142 fps=6.1 q=36.0 size=       1kB time=00:00:01.38 bitrate=   4.3kbits/s speed=0.0591x    frame=  146 fps=6.0 q=36.0 size=       1kB time=00:00:01.46 bitrate=   4.0kbits/s speed=0.0603x    frame=  149 fps=6.0 q=36.0 size=       1kB time=00:00:01.52 bitrate=   3.9kbits/s speed=0.0608x    frame=  150 fps=5.8 q=36.0 size=       1kB time=00:00:01.54 bitrate=   3.8kbits/s speed=0.0597x    frame=  154 fps=5.8 q=35.0 size=       1kB time=00:00:01.62 bitrate=   3.6kbits/s speed=0.0613x    frame=  156 fps=5.8 q=35.0 size=       1kB time=00:00:01.66 bitrate=   3.5kbits/s speed=0.0613x    frame=  158 fps=5.6 q=35.0 size=       1kB time=00:00:01.70 bitrate=   3.5kbits/s speed=0.0608x    frame=  162 fps=5.7 q=35.0 size=       1kB time=00:00:01.78 bitrate=   3.3kbits/s speed=0.0621x    frame=  164 fps=5.5 q=35.0 size=       1kB time=00:00:01.82 bitrate=   3.2kbits/s speed=0.0614x    frame=  166 fps=5.5 q=35.0 size=       1kB time=00:00:01.86 bitrate=   3.2kbits/s speed=0.0611x    frame=  169 fps=5.4 q=35.0 size=       1kB time=00:00:01.92 bitrate=   3.1kbits/s speed=0.0615x    frame=  171 fps=5.4 q=35.0 size=       1kB time=00:00:01.96 bitrate=   3.0kbits/s speed=0.0618x    frame=  173 fps=5.3 q=34.0 size=       1kB time=00:00:02.00 bitrate=   2.9kbits/s speed=0.0614x    frame=  177 fps=5.2 q=34.0 size=       1kB time=00:00:02.08 bitrate=   2.8kbits/s speed=0.0613x    frame=  180 fps=5.2 q=34.0 size=       1kB time=00:00:02.14 bitrate=   2.8kbits/s speed=0.0618x    frame=  183 fps=5.1 q=34.0 size=       1kB time=00:00:02.20 bitrate=   2.7kbits/s speed=0.0613x    frame=  186 fps=5.1 q=34.0 size=       1kB time=00:00:02.26 bitrate=   2.6kbits/s speed=0.0621x    frame=  188 fps=5.1 q=34.0 size=       1kB time=00:00:02.30 bitrate=   2.6kbits/s speed=0.0622x    frame=  189 fps=5.0 q=34.0 size=       1kB time=00:00:02.32 bitrate=   2.5kbits/s speed=0.0615x    frame=  192 fps=5.0 q=34.0 size=       1kB time=00:00:02.38 bitrate=   2.5kbits/s speed=0.0619x    frame=  195 fps=4.9 q=34.0 size=       1kB time=00:00:02.44 bitrate=   2.4kbits/s speed=0.0616x    frame=  197 fps=4.9 q=34.0 size=       1kB time=00:00:02.48 bitrate=   2.4kbits/s speed=0.0615x    frame=  200 fps=4.9 q=34.0 size=       1kB time=00:00:02.54 bitrate=   2.3kbits/s speed=0.0622x    frame=  201 fps=4.8 q=34.0 size=       1kB time=00:00:02.56 bitrate=   2.3kbits/s speed=0.0618x    frame=  202 fps=4.8 q=34.0 size=       1kB time=00:00:02.58 bitrate=   2.3kbits/s speed=0.0613x    frame=  204 fps=4.8 q=34.0 size=       1kB time=00:00:02.62 bitrate=   2.2kbits/s speed=0.0613x    frame=  208 fps=4.8 q=34.0 size=       1kB time=00:00:02.70 bitrate=   2.2kbits/s speed=0.0622x    frame=  209 fps=4.7 q=34.0 size=       1kB time=00:00:02.72 bitrate=   2.2kbits/s speed=0.0617x    frame=  210 fps=4.7 q=34.0 size=       1kB time=00:00:02.74 bitrate=   2.1kbits/s speed=0.0611x    frame=  214 fps=4.7 q=34.0 size=       1kB time=00:00:02.82 bitrate=   2.1kbits/s speed=0.0619x    frame=  216 fps=4.6 q=33.0 size=       1kB time=00:00:02.86 bitrate=   2.1kbits/s speed=0.0615x    frame=  218 fps=4.6 q=33.0 size=       1kB time=00:00:02.90 bitrate=   2.0kbits/s speed=0.0611x    frame=  220 fps=4.6 q=33.0 size=       1kB time=00:00:02.94 bitrate=   2.0kbits/s speed=0.0612x    frame=  222 fps=4.6 q=33.0 size=       1kB time=00:00:02.98 bitrate=   2.0kbits/s speed=0.0612x    frame=  224 fps=4.5 q=33.0 size=       1kB time=00:00:03.02 bitrate=   1.9kbits/s speed=0.0613x    frame=  226 fps=4.5 q=33.0 size=       1kB time=00:00:03.06 bitrate=   1.9kbits/s speed=0.0612x    frame=  227 fps=4.5 q=33.0 size=       1kB time=00:00:03.08 bitrate=   1.9kbits/s speed=0.0608x    frame=  230 fps=4.5 q=33.0 size=       1kB time=00:00:03.14 bitrate=   1.9kbits/s speed=0.0612x    frame=  232 fps=4.5 q=33.0 size=       1kB time=00:00:03.18 bitrate=   1.9kbits/s speed=0.0613x    frame=  233 fps=4.4 q=33.0 size=       1kB time=00:00:03.20 bitrate=   1.8kbits/s speed=0.0611x    frame=  235 fps=4.4 q=33.0 size=       1kB time=00:00:03.24 bitrate=   1.8kbits/s speed=0.061x    frame=  239 fps=4.4 q=33.0 size=       1kB time=00:00:03.32 bitrate=   1.8kbits/s speed=0.0613x    frame=  240 fps=4.4 q=33.0 size=       1kB time=00:00:03.34 bitrate=   1.8kbits/s speed=0.0609x    frame=  243 fps=4.4 q=33.0 size=       1kB time=00:00:03.40 bitrate=   1.7kbits/s speed=0.0614x    frame=  246 fps=4.3 q=33.0 size=    5151kB time=00:00:03.46 bitrate=12191.7kbits/s speed=0.0609x    frame=  249 fps=4.3 q=33.0 size=    5151kB time=00:00:03.52 bitrate=11984.0kbits/s speed=0.0613x    frame=  251 fps=4.3 q=33.0 size=    5151kB time=00:00:03.56 bitrate=11849.4kbits/s speed=0.0614x    frame=  253 fps=4.3 q=33.0 size=    5151kB time=00:00:03.60 bitrate=11717.7kbits/s speed=0.0608x    frame=  255 fps=4.3 q=33.0 size=    5151kB time=00:00:03.64 bitrate=11589.0kbits/s speed=0.0609x    frame=  259 fps=4.3 q=33.0 size=    5151kB time=00:00:03.72 bitrate=11339.9kbits/s speed=0.0614x    frame=  261 fps=4.2 q=33.0 size=    5151kB time=00:00:03.76 bitrate=11219.3kbits/s speed=0.061x    frame=  262 fps=4.2 q=33.0 size=    5151kB time=00:00:03.78 bitrate=11159.9kbits/s speed=0.0608x    frame=  265 fps=4.2 q=33.0 size=    5151kB time=00:00:03.84 bitrate=10985.6kbits/s speed=0.0611x    frame=  267 fps=4.2 q=33.0 size=    5151kB time=00:00:03.88 bitrate=10872.4kbits/s speed=0.061x    frame=  268 fps=4.2 q=33.0 size=    5151kB time=00:00:03.90 bitrate=10816.6kbits/s speed=0.0608x    frame=  270 fps=4.2 q=33.0 size=    5151kB time=00:00:03.94 bitrate=10706.8kbits/s speed=0.0609x    frame=  273 fps=4.2 q=33.0 size=    5151kB time=00:00:04.00 bitrate=10546.3kbits/s speed=0.0611x    frame=  275 fps=4.2 q=33.0 size=    5151kB time=00:00:04.04 bitrate=10441.9kbits/s speed=0.061x    frame=  277 fps=4.1 q=33.0 size=    5151kB time=00:00:04.08 bitrate=10339.5kbits/s speed=0.0607x    frame=  279 fps=4.1 q=33.0 size=    5151kB time=00:00:04.12 bitrate=10239.2kbits/s speed=0.0608x    frame=  282 fps=4.1 q=33.0 size=    5151kB time=00:00:04.18 bitrate=10092.2kbits/s speed=0.0611x    frame=  284 fps=4.1 q=33.0 size=    5151kB time=00:00:04.22 bitrate=9996.6kbits/s speed=0.0609x    frame=  286 fps=4.1 q=33.0 size=    5151kB time=00:00:04.26 bitrate=9902.7kbits/s speed=0.061x    frame=  288 fps=4.1 q=33.0 size=    5151kB time=00:00:04.30 bitrate=9810.6kbits/s speed=0.061x    frame=  291 fps=4.1 q=33.0 size=    5151kB time=00:00:04.36 bitrate=9675.7kbits/s speed=0.0609x    frame=  294 fps=4.1 q=33.0 size=    5151kB time=00:00:04.42 bitrate=9544.4kbits/s speed=0.0609x    frame=  296 fps=4.0 q=33.0 size=    5151kB time=00:00:04.46 bitrate=9458.8kbits/s speed=0.0608x    frame=  299 fps=4.0 q=33.0 size=    5151kB time=00:00:04.52 bitrate=9333.2kbits/s speed=0.0611x    frame=  300 fps=4.0 q=33.0 size=    5151kB time=00:00:04.54 bitrate=9292.1kbits/s speed=0.0609x    frame=  302 fps=4.0 q=33.0 size=    5151kB time=00:00:04.58 bitrate=9211.0kbits/s speed=0.0607x    frame=  306 fps=4.0 q=33.0 size=    5151kB time=00:00:04.66 bitrate=9052.9kbits/s speed=0.0611x    frame=  308 fps=4.0 q=33.0 size=    5151kB time=00:00:04.70 bitrate=8975.9kbits/s speed=0.0607x    frame=  311 fps=4.0 q=33.0 size=    5151kB time=00:00:04.76 bitrate=8862.8kbits/s speed=0.0609x    frame=  314 fps=4.0 q=33.0 size=    5151kB time=00:00:04.82 bitrate=8752.5kbits/s speed=0.0609x    frame=  316 fps=4.0 q=34.0 size=    5151kB time=00:00:04.86 bitrate=8680.4kbits/s speed=0.0609x    frame=  318 fps=4.0 q=34.0 size=    5151kB time=00:00:04.90 bitrate=8609.6kbits/s speed=0.0609x    frame=  321 fps=3.9 q=34.0 size=    7427kB time=00:00:04.96 bitrate=12263.5kbits/s speed=0.0607x    frame=  324 fps=3.9 q=34.0 size=    7427kB time=00:00:05.02 bitrate=12116.9kbits/s speed=0.061x    frame=  327 fps=3.9 q=34.0 size=    7427kB time=00:00:05.08 bitrate=11973.8kbits/s speed=0.0611x    frame=  329 fps=3.9 q=34.0 size=    7427kB time=00:00:05.12 bitrate=11880.3kbits/s speed=0.061x    frame=  330 fps=3.9 q=34.0 size=    7427kB time=00:00:05.14 bitrate=11834.1kbits/s speed=0.0607x    frame=  332 fps=3.9 q=34.0 size=    7427kB time=00:00:05.18 bitrate=11742.7kbits/s speed=0.0608x    frame=  335 fps=3.9 q=34.0 size=    7427kB time=00:00:05.24 bitrate=11608.3kbits/s speed=0.061x    frame=  336 fps=3.9 q=34.0 size=    7427kB time=00:00:05.26 bitrate=11564.1kbits/s speed=0.0608x    frame=  339 fps=3.9 q=34.0 size=    7427kB time=00:00:05.32 bitrate=11433.7kbits/s speed=0.0607x    frame=  342 fps=3.9 q=34.0 size=    7427kB time=00:00:05.38 bitrate=11306.3kbits/s speed=0.0608x    frame=  344 fps=3.9 q=34.0 size=    7427kB time=00:00:05.42 bitrate=11222.8kbits/s speed=0.0609x    frame=  346 fps=3.9 q=34.0 size=    7427kB time=00:00:05.46 bitrate=11140.6kbits/s speed=0.0608x    frame=  347 fps=3.8 q=34.0 size=    7427kB time=00:00:05.48 bitrate=11100.0kbits/s speed=0.0607x    frame=  349 fps=3.8 q=34.0 size=    7427kB time=00:00:05.52 bitrate=11019.6kbits/s speed=0.0606x    frame=  353 fps=3.8 q=34.0 size=    7427kB time=00:00:05.60 bitrate=10862.2kbits/s speed=0.0608x    frame=  354 fps=3.8 q=34.0 size=    7427kB time=00:00:05.62 bitrate=10823.5kbits/s speed=0.0605x    frame=  358 fps=3.8 q=34.0 size=    7427kB time=00:00:05.70 bitrate=10671.6kbits/s speed=0.0609x    frame=  359 fps=3.8 q=34.0 size=    7427kB time=00:00:05.72 bitrate=10634.3kbits/s speed=0.0606x    frame=  361 fps=3.8 q=34.0 size=    7427kB time=00:00:05.76 bitrate=10560.5kbits/s speed=0.0604x    frame=  365 fps=3.8 q=34.0 size=    7427kB time=00:00:05.84 bitrate=10415.8kbits/s speed=0.0608x    frame=  367 fps=3.8 q=34.0 size=    7427kB time=00:00:05.88 bitrate=10345.0kbits/s speed=0.0607x    frame=  368 fps=3.8 q=34.0 size=    7427kB time=00:00:05.90 bitrate=10309.9kbits/s speed=0.0606x    frame=  371 fps=3.8 q=34.0 size=    7427kB time=00:00:05.96 bitrate=10206.2kbits/s speed=0.0609x    frame=  373 fps=3.8 q=34.0 size=    7427kB time=00:00:06.00 bitrate=10138.1kbits/s speed=0.0609x    frame=  374 fps=3.8 q=34.0 size=    7427kB time=00:00:06.02 bitrate=10104.5kbits/s speed=0.0607x    frame=  375 fps=3.8 q=34.0 size=    7427kB time=00:00:06.04 bitrate=10071.0kbits/s speed=0.0605x    frame=  379 fps=3.8 q=34.0 size=    7427kB time=00:00:06.12 bitrate=9939.4kbits/s speed=0.0609x    frame=  380 fps=3.8 q=34.0 size=    7427kB time=00:00:06.14 bitrate=9907.0kbits/s speed=0.0608x    frame=  381 fps=3.7 q=34.0 size=    7427kB time=00:00:06.16 bitrate=9874.9kbits/s speed=0.0606x    frame=  383 fps=3.7 q=34.0 size=    7427kB time=00:00:06.20 bitrate=9811.2kbits/s speed=0.0605x    frame=  387 fps=3.7 q=34.0 size=    7427kB time=00:00:06.28 bitrate=9686.2kbits/s speed=0.0605x    frame=  391 fps=3.7 q=34.0 size=    7427kB time=00:00:06.36 bitrate=9564.4kbits/s speed=0.0606x    frame=  394 fps=3.7 q=34.0 size=    7427kB time=00:00:06.42 bitrate=9475.0kbits/s speed=0.0606x    frame=  396 fps=3.7 q=34.0 size=    7427kB time=00:00:06.46 bitrate=9416.3kbits/s speed=0.0607x    frame=  398 fps=3.7 q=34.0 size=    7427kB time=00:00:06.50 bitrate=9358.4kbits/s speed=0.0607x    frame=  399 fps=3.7 q=34.0 size=    7427kB time=00:00:06.52 bitrate=9329.7kbits/s speed=0.0605x    frame=  402 fps=3.7 q=34.0 size=    7427kB time=00:00:06.58 bitrate=9244.6kbits/s speed=0.0606x    frame=  405 fps=3.7 q=34.0 size=    7427kB time=00:00:06.64 bitrate=9161.1kbits/s speed=0.0606x    frame=  407 fps=3.7 q=34.0 size=    7427kB time=00:00:06.68 bitrate=9106.3kbits/s speed=0.0607x    frame=  409 fps=3.7 q=34.0 size=    7427kB time=00:00:06.72 bitrate=9052.1kbits/s speed=0.0606x    frame=  411 fps=3.7 q=34.0 size=    7427kB time=00:00:06.76 bitrate=8998.5kbits/s speed=0.0606x    frame=  414 fps=3.7 q=34.0 size=    7427kB time=00:00:06.82 bitrate=8919.4kbits/s speed=0.0607x    frame=  417 fps=3.7 q=34.0 size=    7427kB time=00:00:06.88 bitrate=8841.6kbits/s speed=0.0608x    frame=  418 fps=3.7 q=34.0 size=    7427kB time=00:00:06.90 bitrate=8816.0kbits/s speed=0.0605x    frame=  422 fps=3.7 q=34.0 size=    7427kB time=00:00:06.98 bitrate=8714.9kbits/s speed=0.0608x    frame=  425 fps=3.7 q=33.0 size=    7427kB time=00:00:07.04 bitrate=8640.7kbits/s speed=0.0606x    frame=  427 fps=3.7 q=33.0 size=    7427kB time=00:00:07.08 bitrate=8591.9kbits/s speed=0.0606x    frame=  430 fps=3.7 q=33.0 size=    7427kB time=00:00:07.14 bitrate=8519.7kbits/s speed=0.0608x    frame=  432 fps=3.7 q=33.0 size=    7427kB time=00:00:07.18 bitrate=8472.2kbits/s speed=0.0608x    frame=  433 fps=3.6 q=33.0 size=    7427kB time=00:00:07.20 bitrate=8448.7kbits/s speed=0.0605x    frame=  437 fps=3.7 q=33.0 size=    7427kB time=00:00:07.28 bitrate=8355.9kbits/s speed=0.0609x    frame=  439 fps=3.6 q=33.0 size=    7427kB time=00:00:07.32 bitrate=8310.2kbits/s speed=0.0607x    frame=  441 fps=3.6 q=33.0 size=    7427kB time=00:00:07.36 bitrate=8265.0kbits/s speed=0.0606x    frame=  445 fps=3.6 q=33.0 size=    7427kB time=00:00:07.44 bitrate=8176.2kbits/s speed=0.0605x    frame=  448 fps=3.6 q=33.0 size=    7427kB time=00:00:07.50 bitrate=8110.8kbits/s speed=0.0608x    frame=  450 fps=3.6 q=33.0 size=    7427kB time=00:00:07.54 bitrate=8067.8kbits/s speed=0.0608x    frame=  452 fps=3.6 q=33.0 size=    7427kB time=00:00:07.58 bitrate=8025.2kbits/s speed=0.0605x    frame=  453 fps=3.6 q=33.0 size=    7427kB time=00:00:07.60 bitrate=8004.1kbits/s speed=0.0604x    frame=  457 fps=3.6 q=33.0 size=    7427kB time=00:00:07.68 bitrate=7920.7kbits/s speed=0.0608x    frame=  459 fps=3.6 q=33.0 size=    7427kB time=00:00:07.72 bitrate=7879.7kbits/s speed=0.0607x    frame=  461 fps=3.6 q=33.0 size=    7427kB time=00:00:07.76 bitrate=7839.1kbits/s speed=0.0606x    frame=  463 fps=3.6 q=33.0 size=    7427kB time=00:00:07.80 bitrate=7798.9kbits/s speed=0.0606x    frame=  466 fps=3.6 q=33.0 size=    7427kB time=00:00:07.86 bitrate=7739.3kbits/s speed=0.0606x    frame=  468 fps=3.6 q=33.0 size=    7427kB time=00:00:07.90 bitrate=7700.2kbits/s speed=0.0606x    frame=  470 fps=3.6 q=33.0 size=    7427kB time=00:00:07.94 bitrate=7661.4kbits/s speed=0.0606x    frame=  473 fps=3.6 q=33.0 size=    7427kB time=00:00:08.00 bitrate=7603.9kbits/s speed=0.0608x    frame=  474 fps=3.6 q=33.0 size=    7427kB time=00:00:08.02 bitrate=7585.0kbits/s speed=0.0605x    frame=  478 fps=3.6 q=33.0 size=   12553kB time=00:00:08.10 bitrate=12694.3kbits/s speed=0.0607x    frame=  479 fps=3.6 q=33.0 size=   12553kB time=00:00:08.12 bitrate=12663.1kbits/s speed=0.0606x    frame=  482 fps=3.6 q=33.0 size=   12553kB time=00:00:08.18 bitrate=12570.2kbits/s speed=0.0606x    frame=  486 fps=3.6 q=33.0 size=   12553kB time=00:00:08.26 bitrate=12448.5kbits/s speed=0.0605x    frame=  488 fps=3.6 q=33.0 size=   12553kB time=00:00:08.30 bitrate=12388.5kbits/s speed=0.0605x    frame=  491 fps=3.6 q=33.0 size=   12553kB time=00:00:08.36 bitrate=12299.6kbits/s speed=0.0607x    frame=  493 fps=3.6 q=33.0 size=   12553kB time=00:00:08.40 bitrate=12241.0kbits/s speed=0.0607x    frame=  495 fps=3.6 q=33.0 size=   12553kB time=00:00:08.44 bitrate=12183.0kbits/s speed=0.0607x    frame=  497 fps=3.5 q=33.0 size=   12553kB time=00:00:08.48 bitrate=12125.5kbits/s speed=0.0605x    frame=  499 fps=3.5 q=33.0 size=   12553kB time=00:00:08.52 bitrate=12068.6kbits/s speed=0.0606x    frame=  500 fps=3.5 q=33.0 size=   12553kB time=00:00:08.54 bitrate=12040.4kbits/s speed=0.0604x    frame=  500 fps=3.1 q=-1.0 Lsize=   15845kB time=00:00:09.94 bitrate=13057.5kbits/s speed=0.0613x    
video:15841kB audio:0kB subtitle:0kB other streams:0kB global headers:0kB muxing overhead: 0.028796%
bench: utime=631.384s
bench: maxrss=2613032kB
[libx264 @ 0x34ae120] frame I:3     Avg QP:28.73  size:686244
[libx264 @ 0x34ae120] frame P:138   Avg QP:32.52  size: 59568
[libx264 @ 0x34ae120] frame B:359   Avg QP:34.29  size: 16549
[libx264 @ 0x34ae120] consecutive B-frames:  1.0%  2.0% 23.4% 73.6%
[libx264 @ 0x34ae120] mb I  I16..4: 11.0% 84.5%  4.5%
[libx264 @ 0x34ae120] mb P  I16..4:  0.1%  0.2%  0.0%  P16..4: 44.6%  2.6%  8.5%  0.0%  0.0%    skip:43.9%
[libx264 @ 0x34ae120] mb B  I16..4:  0.0%  0.0%  0.0%  B16..8: 48.9%  0.2%  0.0%  direct: 0.2%  skip:50.6%  L0:49.0% L1:51.0% BI: 0.0%
[libx264 @ 0x34ae120] final ratefactor: 25.76
[libx264 @ 0x34ae120] 8x8 transform intra:81.5% inter:64.8%
[libx264 @ 0x34ae120] direct mvs  spatial:99.2% temporal:0.8%
[libx264 @ 0x34ae120] coded y,uvDC,uvAC intra: 95.3% 81.8% 66.7% inter: 4.2% 5.0% 0.0%
[libx264 @ 0x34ae120] i16 v,h,dc,p: 22% 25% 31% 22%
[libx264 @ 0x34ae120] i8 v,h,dc,ddl,ddr,vr,hd,vl,hu:  5%  7%  2% 14% 18% 14% 18% 10% 12%
[libx264 @ 0x34ae120] i4 v,h,dc,ddl,ddr,vr,hd,vl,hu:  3%  4%  1% 14% 17% 15% 20% 11% 16%
[libx264 @ 0x34ae120] i8c dc,h,v,p: 50% 24% 14% 13%
[libx264 @ 0x34ae120] Weighted P-Frames: Y:0.7% UV:0.0%
[libx264 @ 0x34ae120] ref P L0: 54.2% 17.1% 15.0%  3.5%  3.4%  2.7%  3.0%  1.0%  0.0%
[libx264 @ 0x34ae120] ref B L0: 75.2%  9.0%  8.2%  2.6%  2.5%  1.8%  0.8%
[libx264 @ 0x34ae120] ref B L1: 95.8%  4.2%
[libx264 @ 0x34ae120] kb/s:12976.17
